<svg width="19" height="16" viewBox="0 0 19 16" fill="none" xmlns="http://www.w3.org/2000/svg">
<g clip-path="url(#clip0_302_227)">
<path d="M9.68353 6.54541V9.64362H14.626C14.409 10.64 13.7577 11.4837 12.7809 12.0509L15.7614 14.0655C17.498 12.6692 18.4999 10.6182 18.4999 8.18186C18.4999 7.6146 18.4414 7.06909 18.3329 6.5455L9.68353 6.54541Z" fill="#4285F4"/>
<path d="M4.53673 9.52295L3.86451 9.9712L1.48505 11.5857C2.99618 14.1966 6.09337 16.0003 9.68335 16.0003C12.1629 16.0003 14.2417 15.2876 15.7612 14.0658L12.7807 12.0512C11.9625 12.5312 10.9189 12.8221 9.68335 12.8221C7.29559 12.8221 5.26688 11.4185 4.54048 9.52757L4.53673 9.52295Z" fill="#34A853"/>
<path d="M1.48503 4.41455C0.858902 5.49088 0.499939 6.70545 0.499939 7.99998C0.499939 9.29451 0.858902 10.5091 1.48503 11.5854C1.48503 11.5926 4.54076 9.51994 4.54076 9.51994C4.35708 9.03994 4.24852 8.53088 4.24852 7.99989C4.24852 7.46891 4.35708 6.95985 4.54076 6.47985L1.48503 4.41455Z" fill="#FBBC05"/>
<path d="M9.68354 3.18547C11.0361 3.18547 12.2383 3.59273 13.1984 4.3782L15.8283 2.08731C14.2336 0.792781 12.1632 0 9.68354 0C6.09356 0 2.99618 1.79637 1.48505 4.41458L4.54068 6.48004C5.26699 4.5891 7.29578 3.18547 9.68354 3.18547Z" fill="#EA4335"/>
</g>
<defs>
<clipPath id="clip0_302_227">
<rect width="18" height="16" fill="white" transform="translate(0.5)"/>
</clipPath>
</defs>
</svg>
